<svg width="185" height="61" viewBox="0 0 185 61" fill="none" xmlns="http://www.w3.org/2000/svg">
<path d="M63.0287 20.6701L47.7278 5.64742C44.0257 2.01213 39.1831 0.0459757 34.3295 0C29.4672 0.0459757 24.633 2.01213 20.9214 5.64742L5.62984 20.6701C-1.87661 28.0426 -1.87661 39.9958 5.62984 47.3683L7.55994 49.26C11.0023 52.6356 28.9011 60.3508 30.5065 61V31.8259C30.5065 30.9357 29.8847 30.1291 29.0404 29.7952L19.5017 26.0674C18.7037 26.735 17.6831 27.1336 16.5604 27.1336C14.0273 27.1336 11.9859 25.0844 11.9859 22.562C11.9859 20.0396 14.0364 17.9901 16.5604 17.9901C18.8987 17.9901 20.8285 19.752 21.0978 22.0054L30.3858 25.6315C31.6572 26.123 32.9841 26.3826 34.32 26.401C35.6562 26.3826 36.9923 26.1323 38.2542 25.6315L47.5517 22.0054C47.83 19.752 49.7508 17.9901 52.0891 17.9901C54.6222 17.9901 56.6633 20.0396 56.6633 22.562C56.6633 25.0844 54.6128 27.1336 52.0891 27.1336C50.9664 27.1336 49.9364 26.735 49.1475 26.0674L39.5996 29.7952C38.7459 30.1291 38.1337 30.9265 38.1337 31.8259V61C39.7389 60.3508 57.6469 52.6356 61.0802 49.26L63.0103 47.3589C70.5355 39.9866 70.5355 28.0426 63.0287 20.6701ZM34.3295 19.9746C31.2766 19.9746 28.7993 17.4987 28.7993 14.4476C28.7993 11.3969 31.2766 8.9209 34.3295 8.9209C37.382 8.9209 39.8502 11.3969 39.8502 14.4476C39.8502 17.4987 37.3727 19.9746 34.3295 19.9746Z" fill="#7DBA28"/>
<path d="M91.0605 8.15112H87.8687V28.0334H91.0605V8.15112Z" fill="#7DBA28"/>
<path d="M99.3462 28.0331H102.529V10.9515L108.413 10.9888V8.15088H93.5098V10.9888L99.3462 10.9515V28.0331Z" fill="#7DBA28"/>
<path d="M121.068 20.8835H124.548C125.605 20.8835 126.57 20.7166 127.424 20.3827C128.278 20.0487 129.001 19.5944 129.604 19.0101C130.208 18.4354 130.672 17.7489 130.996 16.97C131.33 16.2005 131.488 15.3658 131.488 14.4571C131.488 13.5482 131.34 12.7506 131.024 11.9716C130.718 11.2021 130.272 10.5343 129.697 9.95948C129.122 9.39376 128.417 8.9394 127.582 8.624C126.746 8.2902 125.791 8.13257 124.733 8.13257H117.885V28.0148H121.077L121.068 20.8835ZM121.059 10.9886H124.714C125.884 10.9886 126.765 11.2947 127.378 11.9253C127.99 12.5559 128.296 13.3998 128.296 14.4661C128.296 15.5884 127.962 16.4602 127.294 17.0999C126.635 17.7399 125.717 18.055 124.538 18.055H121.059V10.9886Z" fill="#7DBA28"/>
<path d="M141.694 8.15112H138.447L131.191 28.0332H134.504L136.211 23.1369H143.912L145.647 28.0332H148.96L141.694 8.15112ZM137.194 20.3827L138.669 16.1632L140.034 11.4523H140.089L141.453 16.1632L142.919 20.3827H137.194Z" fill="#7DBA28"/>
<path d="M164.465 17.8229C165.254 16.8029 165.644 15.616 165.644 14.2341C165.644 13.3808 165.495 12.5928 165.18 11.86C164.873 11.1274 164.428 10.4784 163.853 9.93118C163.277 9.384 162.554 8.93912 161.691 8.63306C160.828 8.32699 159.863 8.16016 158.786 8.16016H151.502V28.0424H154.695V20.4382H158.155L162.582 28.0424H165.996L161.31 19.9558C162.628 19.5385 163.676 18.8245 164.465 17.8229ZM154.695 17.5912V10.9886H158.805C160.021 10.9886 160.93 11.2852 161.542 11.8788C162.154 12.4721 162.461 13.2604 162.461 14.2341C162.461 15.2077 162.145 16.0703 161.468 16.6825C160.809 17.2943 159.89 17.5912 158.712 17.5912H154.695Z" fill="#7DBA28"/>
<path d="M172.259 8.15112H169.067V28.0334H172.259V8.15112Z" fill="#7DBA28"/>
<path d="M184.925 28.0331L176.305 17.4706L184.666 8.16016H181.001L173.382 16.6176V18.4443L181.14 28.0331H184.925Z" fill="#7DBA28"/>
<path d="M163.769 44.6138H167.973L165.857 38.8364L163.769 44.6138Z" fill="#7DBA28"/>
<path d="M116.328 43.4358H112.82V47.2379H116.328V47.2473C116.857 47.2473 117.293 47.0616 117.654 46.6907C118.016 46.3197 118.192 45.8654 118.192 45.3367C118.192 44.8084 118.007 44.363 117.645 43.992C117.283 43.6211 116.847 43.4358 116.328 43.4358Z" fill="#7DBA28"/>
<path d="M117.198 41.5073C117.532 41.1642 117.699 40.7376 117.699 40.2368C117.699 39.7362 117.532 39.3279 117.189 38.9758C116.846 38.6139 116.437 38.4377 115.955 38.4377H112.819V42.0266H115.955C116.447 42.0266 116.864 41.8503 117.198 41.5073Z" fill="#7DBA28"/>
<path d="M181.826 32.8093H90.8189C89.1024 32.8093 87.7197 34.2003 87.7197 35.9066V49.7703C87.7197 51.4858 89.1115 52.8677 90.8189 52.8677H181.826C183.542 52.8677 184.925 51.4858 184.925 49.7703V35.9066C184.925 34.1909 183.533 32.8093 181.826 32.8093ZM100.079 44.7719C100.079 46.0331 99.6708 47.0347 98.8543 47.7859C98.0378 48.5465 96.9801 48.9264 95.6905 48.9264C94.4005 48.9264 93.3336 48.5464 92.5168 47.7951C91.6913 47.044 91.2828 46.0331 91.2828 44.7719V36.9825H92.8416V44.707C92.8416 45.5323 93.0831 46.1909 93.5747 46.6731C94.0666 47.1554 94.7718 47.4055 95.6905 47.4055C96.6088 47.4055 97.3142 47.1644 97.8059 46.6731C98.2978 46.1909 98.5389 45.5323 98.5389 44.707V36.9825H100.079V44.7719ZM109.516 48.7038H101.851V47.3501L107.521 38.4569H102.009V36.9825H109.386V38.327L103.698 47.2294H109.516V48.7038ZM118.73 47.7487C118.071 48.3887 117.264 48.7038 116.317 48.7038H111.26V36.973H115.955C116.874 36.973 117.644 37.2791 118.284 37.891C118.925 38.5033 119.24 39.2636 119.24 40.1724C119.24 41.2204 118.813 42.0363 117.969 42.6204C118.507 42.8801 118.934 43.242 119.249 43.7243C119.565 44.2062 119.722 44.7534 119.722 45.3839C119.722 46.3206 119.389 47.1089 118.73 47.7487ZM128.574 48.7038H121.569V36.973H128.491V38.4474H123.128V42.0456H128.074V43.5015H123.128V47.2294H128.574V48.7038ZM137.074 48.7038L132.008 43.0748V48.7038H130.449V36.973H132.008V42.2682L136.907 36.973H138.818L133.641 42.6668L138.985 48.7038H137.074ZM141.936 48.7133H140.377V36.9825H141.936V48.7133ZM151.02 47.9807C150.241 48.6205 149.266 48.9264 148.06 48.9264C146.965 48.9264 146.028 48.6669 145.248 48.1569C144.469 47.6468 143.931 46.9418 143.616 46.0426L144.961 45.2727C145.416 46.6917 146.464 47.3965 148.097 47.3965C148.904 47.3965 149.517 47.2294 149.944 46.9047C150.37 46.5708 150.584 46.1353 150.584 45.5881C150.584 45.0409 150.37 44.6144 149.944 44.3269C149.517 44.0487 148.812 43.7518 147.819 43.4367C147.327 43.2789 146.956 43.1585 146.696 43.0564C146.436 42.9638 146.121 42.8153 145.731 42.6204C145.341 42.4257 145.054 42.2218 144.868 42.0177C144.682 41.8138 144.506 41.5449 144.358 41.2019C144.209 40.8679 144.135 40.4879 144.135 40.0611C144.135 39.041 144.497 38.2342 145.211 37.6409C145.926 37.0473 146.798 36.7412 147.828 36.7412C148.756 36.7412 149.563 36.973 150.25 37.4462C150.936 37.9191 151.456 38.531 151.8 39.31L150.491 40.0611C149.99 38.8557 149.099 38.2527 147.828 38.2527C147.188 38.2527 146.678 38.4105 146.288 38.7258C145.898 39.041 145.703 39.4583 145.703 39.9961C145.703 40.5062 145.889 40.9049 146.26 41.1645C146.631 41.4242 147.262 41.7118 148.171 41.9992C148.496 42.1012 148.728 42.1755 148.858 42.2125C148.988 42.2589 149.201 42.3332 149.489 42.4442C149.777 42.5556 149.981 42.6484 150.12 42.7132C150.25 42.7782 150.435 42.871 150.667 43.0008C150.899 43.1212 151.067 43.242 151.178 43.3532C151.289 43.4646 151.419 43.6036 151.567 43.7612C151.716 43.919 151.827 44.0858 151.892 44.2526C151.957 44.4197 152.022 44.6144 152.069 44.8277C152.115 45.0409 152.143 45.2821 152.143 45.5232C152.143 46.5524 151.772 47.3686 151.02 47.9807ZM157.58 48.7133H156.04V38.4569H152.588V36.9825H161.05V38.4569H157.58V48.7133ZM169.466 48.7038L168.51 46.0703H163.231L162.275 48.7038H160.614L164.994 36.973H166.757L171.137 48.7038H169.466ZM181.371 48.7133H180.109L174.078 39.9497V48.7133H172.519V36.9825H173.781L179.812 45.727V36.9825H181.371V48.7133Z" fill="#7DBA28"/>
</svg>
